<?xml version="1.0" standalone="no"?>
<!DOCTYPE svg PUBLIC "-//W3C//DTD SVG 20010904//EN"
 "http://www.w3.org/TR/2001/REC-SVG-20010904/DTD/svg10.dtd">
<svg version="1.0" xmlns="http://www.w3.org/2000/svg"
 width="700.000000pt" height="700.000000pt" viewBox="0 0 700.000000 700.000000"
 preserveAspectRatio="xMidYMid meet">
<metadata>
Created by potrace 1.11, written by Peter Selinger 2001-2013
</metadata>
<g transform="translate(0.000000,700.000000) scale(0.100000,-0.100000)"
fill="#000000" stroke="none">
<path d="M3627 6824 c-1 -1 -30 -5 -65 -9 -332 -34 -523 -220 -523 -513 0
-106 23 -169 88 -238 74 -79 133 -110 335 -174 152 -49 208 -81 208 -120 0
-46 -36 -64 -132 -63 -63 0 -84 4 -106 20 -24 18 -27 27 -30 92 l-3 71 -219 0
-219 0 -11 -57 c-55 -262 41 -440 265 -492 28 -6 61 -14 75 -17 14 -3 88 -8
165 -11 162 -6 272 10 396 58 79 30 96 42 162 107 125 121 165 383 83 540 -26
50 -100 116 -168 150 l-60 30 131 0 c115 0 135 2 153 18 50 46 83 161 76 263
-16 215 -189 336 -493 344 -58 1 -107 2 -108 1z m97 -404 c36 -13 42 -51 20
-121 l-19 -59 -35 7 c-19 3 -64 18 -100 32 -138 56 -106 149 52 150 31 1 68
-3 82 -9z"/>
<path d="M2252 6610 c-47 -17 -334 -139 -339 -144 -4 -4 40 -158 91 -316 50
-153 140 -437 216 -680 28 -91 67 -208 86 -261 l35 -96 101 39 c95 37 321 128
325 132 6 5 -78 297 -108 371 -4 11 -42 126 -83 255 -236 741 -227 717 -261
717 -8 0 -36 -8 -63 -17z"/>
<path d="M4928 6485 c-2 -2 -25 -6 -52 -9 -128 -18 -274 -118 -366 -251 -34
-50 -248 -420 -285 -494 -48 -96 -68 -170 -67 -256 0 -134 91 -248 265 -335
237 -117 476 -136 657 -52 76 35 194 156 247 252 l41 74 -33 23 c-30 20 -249
107 -300 120 -79 18 -89 16 -120 -28 -43 -58 -75 -78 -134 -82 -43 -3 -59 1
-96 24 -40 25 -43 30 -38 60 5 35 61 146 140 279 28 47 61 103 73 125 34 63
70 105 104 126 57 35 154 19 189 -31 27 -39 -7 -134 -71 -200 -21 -21 -47 -50
-58 -67 l-22 -29 91 -38 c50 -21 143 -56 206 -77 l115 -38 30 27 c17 15 35 32
41 37 28 25 99 123 121 167 58 114 65 255 18 353 -36 77 -121 161 -211 208
-68 36 -222 91 -287 103 -34 6 -193 14 -198 9z"/>
<path d="M1260 5963 c-103 -13 -201 -63 -340 -174 -63 -51 -117 -95 -120 -98
-4 -6 -123 -104 -200 -166 -13 -11 -39 -34 -57 -52 -40 -41 -37 -54 50 -206
35 -62 75 -132 89 -157 14 -25 80 -141 147 -258 67 -116 131 -229 142 -250 11
-20 24 -44 29 -52 14 -22 114 -199 137 -241 29 -55 97 -159 104 -159 16 0 386
301 508 413 59 54 139 160 163 217 89 203 68 377 -78 630 -20 36 -42 74 -48
85 -103 185 -160 277 -204 325 -89 99 -217 156 -322 143z m-1 -508 c35 -18 73
-75 184 -275 90 -162 105 -212 81 -261 -13 -26 -119 -129 -132 -129 -4 0 -19
22 -33 48 -15 26 -90 157 -167 291 l-140 244 48 39 c74 59 110 69 159 43z"/>
<path d="M6102 5698 c-82 -9 -119 -21 -217 -71 -72 -37 -102 -63 -301 -261
-220 -220 -279 -293 -314 -384 -57 -149 -20 -291 110 -419 215 -213 485 -309
695 -248 139 41 221 100 440 320 267 266 321 345 332 483 10 126 -30 217 -146
333 -174 173 -407 269 -599 247z m216 -454 c12 -8 30 -30 39 -49 16 -33 15
-35 -10 -73 -14 -22 -102 -116 -194 -209 -194 -195 -229 -217 -306 -192 -46
15 -112 69 -119 97 -3 10 2 33 11 51 22 41 358 380 391 393 71 30 123 24 188
-18z"/>
<path d="M3065 5161 c-210 -74 -469 -216 -609 -333 -84 -70 -98 -90 -92 -135
6 -56 20 -86 85 -182 89 -132 86 -124 54 -174 -15 -23 -34 -51 -41 -62 -12
-21 -53 -105 -78 -162 l-14 -33 -68 5 c-37 3 -83 8 -102 11 -43 6 -202 6 -208
0 -4 -5 -19 -66 -28 -116 -3 -19 -8 -38 -10 -41 -2 -4 -6 -31 -10 -60 -3 -30
-9 -58 -11 -62 -9 -16 -11 -332 -2 -397 16 -121 28 -185 42 -230 l12 -35 115
0 c63 0 149 3 191 7 l75 8 49 -88 c26 -48 66 -113 87 -145 39 -58 39 -58 22
-85 -15 -24 -81 -109 -94 -122 -43 -42 -104 -173 -96 -205 7 -29 106 -119 194
-178 140 -93 280 -157 452 -207 158 -46 153 -46 182 -8 30 40 77 130 113 218
15 36 30 68 34 73 4 4 83 8 176 9 138 1 170 -1 176 -13 5 -8 27 -61 51 -119
23 -58 56 -128 73 -155 28 -48 32 -51 67 -48 93 8 338 116 488 216 116 77 309
254 310 284 0 26 -43 108 -105 199 -36 53 -65 102 -65 108 0 6 19 38 41 71 22
33 58 97 80 143 l40 83 67 -7 c37 -3 81 -8 97 -10 53 -7 208 -5 215 3 8 10 57
239 66 308 29 230 23 470 -14 578 -16 46 -23 54 -58 65 -25 9 -64 12 -109 8
-38 -3 -110 -8 -160 -11 l-90 -7 -25 54 c-14 29 -32 64 -41 78 -92 140 -92
140 -79 165 7 14 20 33 29 42 47 51 142 190 157 229 17 44 17 44 -11 79 -78
103 -327 262 -570 365 -58 25 -153 50 -187 50 -33 0 -45 -7 -81 -45 -23 -25
-71 -101 -107 -171 l-65 -125 -120 -6 c-66 -2 -135 -5 -153 -6 l-33 -2 -64
149 c-35 82 -72 161 -83 175 -26 35 -61 36 -157 2z"/>
<path d="M1378 3022 c-108 -77 -1098 -860 -1098 -869 0 -12 66 -80 143 -146
45 -38 84 -73 87 -76 3 -3 32 -28 65 -56 57 -48 70 -59 140 -120 76 -66 193
-162 220 -180 51 -34 140 -76 195 -90 71 -19 191 -13 261 12 117 42 268 168
288 239 6 22 11 65 11 97 0 55 1 57 28 58 100 4 187 47 312 153 143 121 160
290 48 455 -42 60 -104 121 -268 261 -160 138 -329 280 -350 297 -12 9 -28 3
-82 -35z m156 -551 c70 -57 80 -74 66 -116 -13 -38 -54 -67 -88 -60 -29 5 -93
41 -131 73 l-34 29 39 35 c53 49 88 77 95 78 4 0 28 -17 53 -39z m-361 -369
c100 -81 120 -136 57 -162 -41 -17 -79 -5 -160 50 -108 75 -107 74 -68 109 65
57 83 69 93 63 5 -3 41 -30 78 -60z"/>
<path d="M5737 3019 c-134 -21 -331 -165 -468 -344 -110 -143 -160 -317 -128
-439 30 -114 112 -238 199 -298 127 -89 265 -83 487 23 146 69 152 72 230 85
26 4 35 1 48 -20 15 -23 15 -27 0 -60 -20 -43 -85 -103 -131 -122 -42 -18 -66
-7 -115 51 l-35 42 -55 -49 c-30 -27 -102 -94 -162 -149 l-107 -101 27 -51
c38 -70 146 -178 207 -206 101 -47 197 -38 325 31 102 54 162 101 278 218 173
175 244 367 198 535 -31 115 -119 237 -216 300 -83 54 -215 66 -319 30 -45
-15 -45 -15 54 78 l99 93 -5 46 c-12 104 -112 238 -212 283 -57 27 -127 35
-199 24z m30 -496 c11 -16 26 -47 35 -71 l17 -42 -59 -30 c-109 -55 -183 -58
-196 -6 -8 34 16 75 77 130 62 55 98 61 126 19z"/>
<path d="M4197 2087 l-622 -314 1 -34 c1 -42 4 -58 43 -194 35 -120 43 -135
74 -135 11 0 106 43 210 95 105 53 195 94 200 92 6 -2 11 -10 13 -18 1 -7 14
-54 29 -104 15 -49 33 -112 40 -140 11 -42 43 -152 95 -335 6 -19 26 -91 45
-160 19 -69 42 -145 51 -169 16 -42 18 -43 51 -38 32 6 180 76 319 154 l62 34
-28 107 c-16 59 -78 282 -139 497 -61 214 -107 392 -103 396 4 4 97 53 207
109 110 57 203 106 207 109 12 11 -50 269 -78 322 -11 23 -33 39 -51 39 -3 0
-285 -141 -626 -313z"/>
<path d="M2597 2124 c-1 -1 -20 -5 -41 -8 -101 -16 -233 -93 -318 -184 -54
-59 -316 -450 -361 -537 -117 -232 -66 -427 148 -560 198 -124 444 -183 586
-141 30 9 55 16 56 16 7 1 40 13 63 23 54 24 118 73 180 136 72 72 308 417
371 541 120 236 69 427 -153 571 -92 59 -228 112 -348 135 -34 6 -178 13 -183
8z m202 -429 c14 -7 35 -22 45 -34 32 -36 15 -78 -104 -262 -185 -286 -203
-304 -290 -303 -58 1 -90 13 -127 47 -45 41 -35 67 130 319 122 185 164 234
212 247 37 10 100 4 134 -14z"/>
</g>
</svg>
